<svg width="48" height="48" viewBox="0 0 48 48" fill="none" xmlns="http://www.w3.org/2000/svg">
<circle cx="24" cy="24" r="24" fill="#34D399"/>
<path d="M13.1259 34.5C13.0292 34.5 12.9294 34.4868 12.8298 34.4604C12.2322 34.2978 11.8778 33.6828 12.0391 33.0833C12.0681 32.9766 15.0314 22.5 27.375 22.5C27.9961 22.5 28.4578 23.0039 28.4578 23.625C28.4578 24.2461 27.9539 24.75 27.375 24.75C16.7906 24.75 14.3109 33.3047 14.2125 33.6703C14.0732 34.1297 13.6209 34.5 13.1259 34.5Z" fill="white"/>
<path opacity="0.4" d="M36 19.7531C36 25.7484 32.716 30.7828 27.7828 32.4141C26.8435 32.7862 25.8221 32.9981 24.7505 32.9981C21.5503 32.9981 18.7833 31.1738 17.4146 28.5099C19.4128 26.5355 22.5427 24.7486 27.3755 24.7486C27.9966 24.7486 28.4583 24.2447 28.4583 23.6236C28.4583 23.0025 27.9544 22.4986 27.3755 22.4986C22.4161 22.4986 18.9896 24.1959 16.6411 26.227C16.553 25.7485 16.5005 25.2563 16.5005 24.75C16.5005 20.1933 20.1947 16.4953 24.7505 16.4953C25.3992 16.4953 26.0297 16.5615 26.6339 16.7054C29.2167 17.3302 32.1746 16.3581 33.6324 13.8347C33.8979 13.374 34.5708 13.3887 34.7883 13.8736C35.5641 15.5981 36 17.7141 36 19.7531Z" fill="white"/>
</svg>
