<svg width="64" height="64" viewBox="0 0 64 64" fill="none" xmlns="http://www.w3.org/2000/svg">
<circle cx="32" cy="32" r="32" fill="#ECECFE"/>
<g clip-path="url(#clip0_49_146)">
<path d="M28.8889 30.4446C28.1528 30.4446 27.5556 31.2429 27.5556 32.1723C27.5556 33.2001 28.1556 34.0001 28.8889 34.0001C29.6222 34.0001 30.2222 33.2001 30.2222 32.2223C30.2222 31.2446 29.6278 30.4446 28.8889 30.4446ZM16 43.7779V45.5057C16 46.0501 16.3958 46.4446 16.8889 46.4446H19.5556V42.939H16.8889C16.3958 42.889 16 43.2834 16 43.7779ZM47.1111 42.889H44.4444V24.3057C44.4444 22.7918 43.25 21.5557 41.7778 21.5557L35.5556 21.5562V25.1112H40.8889V46.4446H47.1111C47.6042 46.4446 48 46.0487 48 45.6057V43.8779C48 43.2834 47.6056 42.889 47.1111 42.889Z" fill="#651FFF"/>
<path opacity="0.4" d="M31.5722 18.0559L20.9055 20.8198C20.0611 21.0283 19.5555 21.7644 19.5555 22.6044V46.4444H33.7778V19.8405C33.7778 18.6461 32.6944 17.7642 31.5722 18.0559ZM28.8889 34C28.1528 34 27.5555 33.2016 27.5555 32.2722C27.5555 31.2933 28.1528 30.5444 28.8889 30.5444C29.625 30.5444 30.2222 31.2444 30.2222 32.2222C30.2222 33.2 29.6278 34 28.8889 34Z" fill="#651FFF"/>
</g>
<defs>
<clipPath id="clip0_49_146">
<rect width="32" height="28.4444" fill="white" transform="translate(16 18)"/>
</clipPath>
</defs>
</svg>
